<?xml version="1.0" standalone="no"?>
<!DOCTYPE svg PUBLIC "-//W3C//DTD SVG 20010904//EN"
 "http://www.w3.org/TR/2001/REC-SVG-20010904/DTD/svg10.dtd">
<svg version="1.0" xmlns="http://www.w3.org/2000/svg"
 width="72.000000pt" height="72.000000pt" viewBox="0 0 72.000000 72.000000"
 preserveAspectRatio="xMidYMid meet">
<metadata>
Created by potrace 1.14, written by Peter Selinger 2001-2017
</metadata>
<g transform="translate(0.000000,72.000000) scale(0.100000,-0.100000)"
fill="#000000" stroke="none">
<path d="M315 695 c-33 -7 -84 -22 -114 -34 -36 -13 -59 -17 -70 -11 -10 5
-23 5 -31 0 -15 -9 -21 -68 -8 -76 5 -3 6 -10 3 -15 -4 -5 -3 -15 2 -21 9 -15
13 -33 18 -68 1 -14 4 -25 5 -25 1 0 4 -9 6 -20 1 -11 6 -31 9 -45 4 -14 8
-34 9 -46 1 -11 6 -25 10 -32 4 -7 5 -16 1 -21 -3 -5 -1 -12 4 -16 5 -3 10
-13 10 -23 2 -30 8 -66 16 -84 4 -9 4 -21 1 -27 -4 -5 -1 -13 5 -16 5 -4 8
-13 5 -20 -2 -7 -2 -16 2 -20 4 -4 8 -11 8 -16 1 -5 2 -14 3 -19 2 -15 44 -29
57 -19 9 7 12 57 4 67 -1 1 -4 11 -5 22 -1 11 -3 21 -5 23 -3 4 -11 41 -13 62
-2 11 -6 26 -10 33 -5 6 -6 16 -2 21 3 5 1 12 -5 16 -5 3 -8 16 -6 28 2 12 -1
27 -6 33 -18 24 60 58 141 63 71 3 73 3 66 -18 -17 -56 44 -66 117 -20 43 28
48 35 49 68 0 20 1 80 3 134 1 65 -2 101 -9 107 -8 7 -31 3 -67 -9 l-56 -19
-6 29 c-4 19 -14 33 -31 39 -32 12 -34 12 -110 -5z"/>
</g>
</svg>
